<svg xmlns="http://www.w3.org/2000/svg" viewBox="0 0 24 24">
    <path fill="currentColor" d="M9 6.159v10.899A3.485 3.485 0 006.5 16C4.57 16 3 17.57 3 19.5S4.57 23 6.5 23s3.5-1.57 3.5-3.5V6.969L21 4.63v10.178a3.485 3.485 0 00-2.5-1.058c-1.93 0-3.5 1.57-3.5 3.5s1.57 3.5 3.5 3.5 3.5-1.57 3.5-3.5V3.395L9 6.159zM6.5 22C5.122 22 4 20.878 4 19.5S5.122 17 6.5 17 9 18.122 9 19.5 7.878 22 6.5 22zm12-2.25a2.503 2.503 0 01-2.5-2.5c0-1.379 1.122-2.5 2.5-2.5s2.5 1.121 2.5 2.5c0 1.378-1.122 2.5-2.5 2.5z"></path>
</svg>